<?xml version="1.0" encoding="UTF-8"?><svg id="Ebene_1" xmlns="http://www.w3.org/2000/svg" viewBox="0 0 1532.93906 716.03052"><defs><style>.cls-1{stroke-width:0px;}</style></defs><path class="cls-1" d="m848.28994,562.27002c-24.4375,0-33.62793,14.20898-33.62793,35.79004,0,22.25977,10.39844,37.67285,34.24609,37.67285,25.84766,0,33.88184-14.18555,33.88184-37.74121,0-20.46387-7.76562-35.72168-34.5-35.72168Z"/><path class="cls-1" d="m616.68837,562.27002c-24.4375,0-33.62793,14.20898-33.62793,35.79004,0,22.25977,10.39844,37.67285,34.24609,37.67285,25.84766,0,33.88184-14.18555,33.88184-37.74121,0-20.46387-7.76562-35.72168-34.5-35.72168Z"/><path class="cls-1" d="m763.7372,480.80444c-412.72852,0-747.31104,52.65723-747.31104,117.61304s334.58252,117.61304,747.31104,117.61304,747.31055-52.6571,747.31055-117.61304-334.58203-117.61304-747.31055-117.61304Zm-363.64258,178.18921c-45.53125,0-72.33691-14.37598-74.39453-37.52441h48.47461c1.94922,9.43066,10.68848,15.19727,27.4248,15.19727,16.93457,0,22.2998-4.46973,22.2998-10.81348,0-8.3916-8.80469-12.16113-33.90137-16.50781-45.8457-7.81348-59.61621-18.82422-59.61621-35.06543,0-23.38965,30.21387-35.44043,68.76074-35.44043,45.56934,0,69.20312,13.80957,71.26074,35.28027h-48.0166c-1.49121-7.25977-6.76172-13.23242-23.04102-13.23242-12.49902,0-19.27539,3.63281-19.27539,9.83887,0,7.18164,8.20117,9.27539,32.82617,13.67188,48.57227,8.70215,62.06543,20.31836,62.06543,37.92773,0,22.08398-26.06152,36.66797-74.86719,36.66797Zm215.31445.11035c-59.89844,0-85.16211-27.06934-85.16211-60.91504,0-30.21484,25.78711-59.34961,88.04102-59.34961,59.49805,0,85.54004,28.0625,85.54004,59.4502,0,33.91992-25.35156,60.81445-88.41895,60.81445Zm231.60156,0c-59.89844,0-85.16211-27.06934-85.16211-60.91504,0-30.21484,25.78711-59.34961,88.04102-59.34961,59.49805,0,85.54004,28.0625,85.54004,59.4502,0,33.91992-25.35156,60.81445-88.41895,60.81445Zm308.30469-2.1709h-59.29199c-42.44629-65.66504-48.60645-76.10156-50.93359-80.45801h-.55176c1.62793,14.57422,1.70801,34.44238,1.70801,54.52246v25.93555h-46.37988v-116.03223h61.45801c38.96484,58.72754,46.91211,72.09766,49.13086,76.97656h.91504c-1.88281-13.56641-2.5293-33.43945-2.5293-51.4668v-25.50977h46.47461v116.03223Z"/><path class="cls-1" d="m150.35537,157.60059l3.9248-25.75146c5.65039-37.08252,8.71191-57.16895-15.19043-57.16895s-26.96387,20.08643-32.61426,57.16895l-17.81641,116.91309c-5.65137,37.08203-8.71289,57.16895,15.18945,57.16895s26.96387-20.08691,32.61523-57.16895l4.31641-28.32715h85.36621l-1.64844,10.81543c-11.30176,74.16504-25.60645,149.36035-132.0293,149.36035S-4.24229,298.20459,5.88271,231.76611l12.71484-83.43604C28.64345,82.40576,44.04775,0,150.4706,0s97.8877,74.68018,86.66406,148.33008l-1.41309,9.27051h-85.36621Z"/><path class="cls-1" d="m343.44521,380.61084c-106.42285,0-96.71094-82.40625-86.66406-148.33057l12.71484-83.43506C279.62001,82.40576,295.02431,0,401.44716,0s97.8877,74.68018,86.58594,148.84521l-12.71484,83.43506c-11.22363,73.65088-25.4502,148.33057-131.87305,148.33057Zm-3.80957-131.84863c-5.65137,37.08203-8.71289,57.16895,15.18945,57.16895s26.96387-20.08691,32.61523-57.16895l17.81641-116.91309c5.65039-37.08252,8.71191-57.16895-15.19043-57.16895s-26.96387,20.08643-32.61426,57.16895l-17.81641,116.91309Z"/><path class="cls-1" d="m502.06533,336.8335l44.65918-293.05566,5.16016-37.59766h110.97559l17.62695,190.56348h2.8457L756.19423,6.18018h110.40723l-6.29883,37.59766-44.65918,293.05566-5.16016,37.59668h-77.96777l6.29785-37.59668,25.66602-168.41748h-2.84473l-80.33887,206.01416h-56.3418l-17.54785-206.01416h-2.8457l-25.66602,168.41748-5.16016,37.59668h-77.96777l6.29883-37.59668Z"/><path class="cls-1" d="m1006.59951,6.18018l-6.29883,37.59766-44.65918,293.05566-5.16016,37.59668h-86.50488l6.29883-37.59668,44.65918-293.05566,5.16016-37.59766h86.50488Z"/><path class="cls-1" d="m1010.26943,336.8335l44.65918-293.05566,5.16016-37.59766h70.56934l48.3584,175.62744h2.8457l21.03418-138.02979,5.16016-37.59766h80.24414l-6.29883,37.59766-44.65918,293.05566-5.16016,37.59668h-71.13867l-48.43652-175.11182h-2.84473l-20.95605,137.51514-5.16113,37.59668h-79.6748l6.29883-37.59668Z"/><path class="cls-1" d="m1527.95205,136.48389h-84.79688l.70703-4.63477c5.65039-37.08252,8.71191-57.16895-15.19043-57.16895s-26.96387,20.08643-32.61426,57.16895l-17.81641,116.91309c-6.43652,42.2334-9.49707,62.31836,16.68164,62.31836,29.02441,0,32.63477-23.69141,36.32324-47.89795l3.29688-21.63135h-33.57715l10.36035-67.98438h110.97559l-30.61035,200.86328h-24.47168l-11.36328-26.2666h-.56836c-23.62793,20.60156-48.19727,32.44727-82.91211,32.44727-93.90332,0-86.48633-86.01074-76.98926-148.33057l12.71484-83.43506c10.36035-67.98438,25.52832-148.84521,133.6582-148.84521,97.31738,0,96.94531,65.9248,86.74219,132.87939l-.5498,3.60449Z"/></svg>